<?xml version="1.0" encoding="UTF-8"?>
<svg width="20px" height="20px" viewBox="0 0 20 20" version="1.1" xmlns="http://www.w3.org/2000/svg" xmlns:xlink="http://www.w3.org/1999/xlink">
    <title>assignment-24px</title>
    <g id="Course-Detail" stroke="none" stroke-width="1" fill="none" fill-rule="evenodd">
        <g id="assignment-24px">
            <polygon id="Path" points="0 0 20 0 20 20 0 20"></polygon>
            <path d="M5.83333333,12.5 L11.6666667,12.5 L11.6666667,14.1666667 L5.83333333,14.1666667 L5.83333333,12.5 Z M5.83333333,9.16666667 L14.1666667,9.16666667 L14.1666667,10.8333333 L5.83333333,10.8333333 L5.83333333,9.16666667 Z M5.83333333,5.83333333 L14.1666667,5.83333333 L14.1666667,7.5 L5.83333333,7.5 L5.83333333,5.83333333 Z M15.8333333,2.5 L12.35,2.5 C12,1.53333333 11.0833333,0.833333333 10,0.833333333 C8.91666667,0.833333333 8,1.53333333 7.65,2.5 L4.16666667,2.5 C4.05,2.5 3.94166667,2.50833333 3.83333333,2.53333333 C3.50833333,2.6 3.21666667,2.76666667 2.99166667,2.99166667 C2.84166667,3.14166667 2.71666667,3.325 2.63333333,3.525 C2.55,3.71666667 2.5,3.93333333 2.5,4.16666667 L2.5,15.8333333 C2.5,16.0583333 2.55,16.2833333 2.63333333,16.4833333 C2.71666667,16.6833333 2.84166667,16.8583333 2.99166667,17.0166667 C3.21666667,17.2416667 3.50833333,17.4083333 3.83333333,17.475 C3.94166667,17.4916667 4.05,17.5 4.16666667,17.5 L15.8333333,17.5 C16.75,17.5 17.5,16.75 17.5,15.8333333 L17.5,4.16666667 C17.5,3.25 16.75,2.5 15.8333333,2.5 Z M10,2.29166667 C10.3416667,2.29166667 10.625,2.575 10.625,2.91666667 C10.625,3.25833333 10.3416667,3.54166667 10,3.54166667 C9.65833333,3.54166667 9.375,3.25833333 9.375,2.91666667 C9.375,2.575 9.65833333,2.29166667 10,2.29166667 Z M15.8333333,15.8333333 L4.16666667,15.8333333 L4.16666667,4.16666667 L15.8333333,4.16666667 L15.8333333,15.8333333 Z" id="Shape" fill="#50AD4E" fill-rule="nonzero"></path>
        </g>
    </g>
</svg>