<?xml version="1.0" encoding="UTF-8"?>
<svg width="20px" height="20px" viewBox="0 0 20 20" version="1.1" xmlns="http://www.w3.org/2000/svg" xmlns:xlink="http://www.w3.org/1999/xlink">
    <title>book-24px</title>
    <g id="Course-Detail" stroke="none" stroke-width="1" fill="none" fill-rule="evenodd">
        <g id="book-24px">
            <polygon id="Path" points="0 0 20 0 20 20 0 20"></polygon>
            <path d="M15,1.66666667 L5,1.66666667 C4.08333333,1.66666667 3.33333333,2.41666667 3.33333333,3.33333333 L3.33333333,16.6666667 C3.33333333,17.5833333 4.08333333,18.3333333 5,18.3333333 L15,18.3333333 C15.9166667,18.3333333 16.6666667,17.5833333 16.6666667,16.6666667 L16.6666667,3.33333333 C16.6666667,2.41666667 15.9166667,1.66666667 15,1.66666667 Z M7.5,3.33333333 L9.16666667,3.33333333 L9.16666667,7.5 L8.33333333,6.875 L7.5,7.5 L7.5,3.33333333 Z M15,16.6666667 L5,16.6666667 L5,3.33333333 L5.83333333,3.33333333 L5.83333333,10.8333333 L8.33333333,8.95833333 L10.8333333,10.8333333 L10.8333333,3.33333333 L15,3.33333333 L15,16.6666667 Z" id="Shape" fill="#50AD4E" fill-rule="nonzero"></path>
        </g>
    </g>
</svg>