<?xml version="1.0" encoding="UTF-8"?>
<svg width="18px" height="18px" viewBox="0 0 18 18" version="1.1" xmlns="http://www.w3.org/2000/svg" xmlns:xlink="http://www.w3.org/1999/xlink">
    <title>book-24px</title>
    <g id="Course-Detail" stroke="none" stroke-width="1" fill="none" fill-rule="evenodd">
        <g id="Course-Detail---Layout-1" transform="translate(-420.000000, -3011.000000)">
            <g id="Group-51" transform="translate(106.000000, 2887.000000)">
                <g id="Group-42" transform="translate(7.000000, 52.000000)">
                    <g id="book-24px" transform="translate(307.000000, 72.000000)">
                        <polygon id="Path" points="0 0 18 0 18 18 0 18"></polygon>
                        <path d="M13.5,1.5 L4.5,1.5 C3.675,1.5 3,2.175 3,3 L3,15 C3,15.825 3.675,16.5 4.5,16.5 L13.5,16.5 C14.325,16.5 15,15.825 15,15 L15,3 C15,2.175 14.325,1.5 13.5,1.5 Z M6.75,3 L8.25,3 L8.25,6.75 L7.5,6.1875 L6.75,6.75 L6.75,3 Z M13.5,15 L4.5,15 L4.5,3 L5.25,3 L5.25,9.75 L7.5,8.0625 L9.75,9.75 L9.75,3 L13.5,3 L13.5,15 Z" id="Shape" fill="#50AD4E" fill-rule="nonzero"></path>
                    </g>
                </g>
            </g>
        </g>
    </g>
</svg>