<svg xmlns="http://www.w3.org/2000/svg" width="60" height="52" viewBox="0 0 60 52">
    <g fill="none" fill-rule="evenodd">
        <g fill="#B90015" fill-rule="nonzero">
            <g>
                <path d="M18.553 14.21c10.246 0 18.552 8.307 18.552 18.553 0 10.247-8.306 18.553-18.552 18.553C8.306 51.316 0 43.01 0 32.763c0-10.246 8.306-18.552 18.553-18.552zm0 1.58c-9.375 0-16.974 7.599-16.974 16.973 0 9.374 7.6 16.974 16.974 16.974s16.973-7.6 16.973-16.974S27.927 15.79 18.553 15.79zM41.447 0C51.678 0 60 2.959 60 7.105l-.002-.024.002.024v6.316c0 .875-.375 1.698-1.063 2.45.643.71 1.01 1.484 1.058 2.303l.005.183v1.283c0 .892-.382 1.73-1.084 2.497.655.723 1.028 1.51 1.078 2.344l.006.192v1.283c0 1.053-.52 2.032-1.46 2.906.887.823 1.395 1.742 1.454 2.724l.006.192v1.283c0 .897-.377 1.74-1.07 2.51.646.72 1.015 1.503 1.064 2.33l.006.193v1.283c0 4.194-8.23 7.202-18.335 7.202-1.864 0-3.693-.105-5.44-.308-.434-.05-.744-.442-.693-.875.05-.434.442-.744.875-.693 1.687.196 3.454.297 5.258.297l.667-.005c8.854-.125 15.913-2.733 16.086-5.514l.003-.104v-1.283c0-.48-.221-.978-.675-1.48-3.127 2.238-9.185 3.65-16.125 3.65-.746 0-1.475-.017-2.183-.05-.436-.019-.773-.388-.753-.824.02-.435.39-.772.825-.752.684.03 1.389.046 2.11.046l.67-.005c6.61-.093 12.223-1.563 14.73-3.456.028-.072.069-.14.12-.203.114-.135.262-.223.421-.261.525-.513.823-1.05.857-1.594l.003-.104v-1.283c0-.626-.378-1.284-1.163-1.944-3.242 2.05-9.04 3.324-15.634 3.324-.466 0-.928-.007-1.383-.02-.436-.012-.78-.376-.767-.811.012-.436.376-.78.812-.767.44.013.887.019 1.338.019l.669-.005c8.875-.125 15.951-2.733 16.125-5.514l.003-.104v-1.283c0-.487-.229-.993-.699-1.504-3.2 2.253-9.446 3.673-16.612 3.673-.829 0-1.652-.02-2.463-.057-.435-.02-.772-.39-.751-.826.02-.435.39-.772.825-.751.786.036 1.585.055 2.389.055l.673-.004c6.871-.093 12.704-1.59 15.258-3.507.023-.054.056-.105.096-.152.104-.125.239-.21.384-.252.55-.517.862-1.058.897-1.607l.003-.101v-1.283c0-.47-.222-.96-.68-1.456-3.178 2.226-9.38 3.625-16.498 3.625-1.995 0-3.949-.112-5.809-.331-.433-.05-.743-.443-.692-.876.051-.433.443-.743.876-.692 1.799.211 3.69.32 5.625.32l.667-.004c6.72-.09 12.442-1.525 15.031-3.37.028-.1.077-.195.146-.28.14-.172.336-.27.54-.29.484-.479.759-.978.79-1.482l.004-.1.001-3.351c-2.795 2.445-9.013 4.041-16.288 4.136l-.687.005c-7.568 0-14.09-1.62-16.974-4.14v.982c0 .436-.353.79-.789.79-.405 0-.738-.306-.784-.698l-.005-.092V7.105l.004-.168C23.116 2.971 30.984.132 40.761.004zm-21.71 22.105l-.001 3.158h.527c1.83 0 3.33 1.42 3.417 3.21l.004.163v1.292h-1.579v-1.292c0-.945-.755-1.726-1.715-1.79l-.127-.004h-2.631c-.978 0-1.774.742-1.838 1.672l-.005.122v.723c0 .722.447 1.373 1.125 1.652l.13.048 4.298 1.405c1.342.44 2.269 1.649 2.338 3.034l.004.167v2.014c0 1.811-1.446 3.285-3.255 3.37l-.166.004-.527-.001v3.159h-1.578l-.001-3.159h-.525c-1.83 0-3.33-1.42-3.418-3.209l-.003-.164v-1.291h1.578v1.291c0 .946.756 1.727 1.716 1.79l.127.005h2.631c.977 0 1.773-.742 1.838-1.672l.004-.123v-2.014c0-.722-.446-1.373-1.125-1.652l-.13-.048-4.297-1.405c-1.342-.44-2.269-1.65-2.338-3.034l-.004-.167v-.723c0-1.81 1.446-3.284 3.255-3.369l.166-.004h.525v-3.158h1.58zM41.447 1.58l-.334.001c-9.236.063-16.64 2.729-16.64 5.525 0 2.763 7.227 5.398 16.307 5.522l.667.005c9.391 0 16.974-2.696 16.974-5.527 0-2.83-7.583-5.526-16.974-5.526z" transform="translate(-296 -477) translate(296 477)"/>
            </g>
        </g>
    </g>
</svg>
