<svg xmlns="http://www.w3.org/2000/svg" width="17" height="20" viewBox="0 0 17 20">
    <g fill="none" fill-rule="evenodd">
        <g fill="#CFCFCF" fill-rule="nonzero">
            <path d="M859.7 412.316c.132 0 .259.053.353.147l4.117 4.117c.195.195.195.512 0 .707l-4.117 4.117c-.196.196-.512.196-.707 0-.094-.093-.147-.22-.147-.353v-2.277h-8.45c-.275 0-.5-.223-.5-.5v-2.681c0-.276.225-.5.5-.5h8.45v-2.277c0-.276.224-.5.5-.5zm-10.063-7.25c.276 0 .5.224.5.5v2.277h8.449c.276 0 .5.223.5.5v2.681c0 .276-.224.5-.5.5h-8.45v2.277c0 .132-.052.26-.146.353-.195.195-.512.195-.707 0l-4.117-4.117c-.195-.195-.195-.512 0-.707l4.117-4.117c.094-.094.221-.147.354-.147z" transform="translate(-846 -403) rotate(90 854.668 413.309)"/>
        </g>
    </g>
</svg>
