<svg xmlns="http://www.w3.org/2000/svg" width="22" height="19" viewBox="0 0 22 19">
    <g fill="none" fill-rule="evenodd">
        <g fill="#CFCFCF" fill-rule="nonzero">
            <path d="M921.168 527c.133 0 .26.053.353.146l4.668 4.668c.196.196.196.512 0 .707l-4.668 4.668c-.195.196-.511.196-.707 0-.093-.093-.146-.22-.146-.353v-2.637h-9.375c-.276 0-.5-.224-.5-.5v-3.062c0-.276.224-.5.5-.5h9.375V527.5c0-.276.224-.5.5-.5zm-11-8c.276 0 .5.224.5.5v2.637h9.375c.276 0 .5.224.5.5v3.062c0 .276-.224.5-.5.5h-9.375v2.637c0 .132-.053.26-.147.353-.195.196-.511.196-.707 0l-4.668-4.668c-.195-.195-.195-.511 0-.707l4.668-4.668c.094-.093.221-.146.354-.146z" transform="translate(-905 -519)"/>
        </g>
    </g>
</svg>
