<?xml version="1.0" encoding="UTF-8"?>
<svg width="24px" height="24px" viewBox="0 0 24 24" version="1.1" xmlns="http://www.w3.org/2000/svg" xmlns:xlink="http://www.w3.org/1999/xlink">
    <title>Group 6</title>
    <g id="Account-Settings" stroke="none" stroke-width="1" fill="none" fill-rule="evenodd">
        <g id="(Desktop)-Account---02" transform="translate(-551.000000, -782.000000)">
            <g id="Group-17" transform="translate(113.000000, 96.000000)">
                <g id="Group-14" transform="translate(60.000000, 678.000000)">
                    <g id="Group-6" transform="translate(378.000000, 8.000000)">
                        <rect id="Rectangle" stroke="#979797" fill="#D8D8D8" opacity="0" x="0.5" y="0.5" width="23" height="23"></rect>
                        <g id="Group" transform="translate(4.000000, 4.000000)" stroke="#444444" stroke-linecap="round" stroke-linejoin="round" stroke-width="1.4">
                            <path d="M13.09,13.09 C11.7690922,14.0968654 10.160674,14.654667 8.5,14.6818182 C3.09090909,14.6818182 0,8.5 0,8.5 C0.961187647,6.70873756 2.29433194,5.14374209 3.91,3.91 M6.87727273,2.50363636 C7.40916587,2.37913417 7.95373133,2.31689812 8.5,2.31816236 C13.9090909,2.31816236 17,8.5 17,8.5 C16.5309388,9.37751477 15.9715428,10.2036597 15.3309091,10.965 M10.1381818,10.1381818 C9.56027275,10.7583825 8.68991923,11.0136793 7.86856156,10.8039189 C7.04720388,10.5941586 6.40584139,9.95279612 6.19608105,9.13143844 C5.98632071,8.31008077 6.24161745,7.43972725 6.86181818,6.86181818" id="Shape"></path>
                            <line x1="0" y1="0" x2="17" y2="17" id="Path"></line>
                        </g>
                    </g>
                </g>
            </g>
        </g>
    </g>
</svg>