<?xml version="1.0" encoding="UTF-8"?>
<svg width="20px" height="20px" viewBox="0 0 20 20" version="1.1" xmlns="http://www.w3.org/2000/svg" xmlns:xlink="http://www.w3.org/1999/xlink">
    <title>how_to_reg-24px</title>
    <g id="Course-Detail" stroke="none" stroke-width="1" fill="none" fill-rule="evenodd">
        <g id="how_to_reg-24px">
            <polygon id="Path" points="0 0 20 0 20 20 0 20"></polygon>
            <path d="M9.16666667,10 C11.0083333,10 12.5,8.50833333 12.5,6.66666667 C12.5,4.825 11.0083333,3.33333333 9.16666667,3.33333333 C7.325,3.33333333 5.83333333,4.825 5.83333333,6.66666667 C5.83333333,8.50833333 7.325,10 9.16666667,10 Z M9.16666667,5 C10.0833333,5 10.8333333,5.75 10.8333333,6.66666667 C10.8333333,7.58333333 10.0833333,8.33333333 9.16666667,8.33333333 C8.25,8.33333333 7.5,7.58333333 7.5,6.66666667 C7.5,5.75 8.25,5 9.16666667,5 Z M4.16666667,15 C4.33333333,14.475 6.30833333,13.6 8.3,13.3833333 L10,11.7166667 C9.675,11.6833333 9.43333333,11.6666667 9.16666667,11.6666667 C6.94166667,11.6666667 2.5,12.7833333 2.5,15 L2.5,16.6666667 L10,16.6666667 L8.33333333,15 L4.16666667,15 Z M17.1666667,10.4166667 L12.8916667,14.725 L11.1666667,12.9916667 L10,14.1666667 L12.8916667,17.0833333 L18.3333333,11.5916667 L17.1666667,10.4166667 Z" id="Shape" fill="#50AD4E" fill-rule="nonzero"></path>
        </g>
    </g>
</svg>