<?xml version="1.0" encoding="utf-8"?>
<!-- Generator: Adobe Illustrator 23.1.1, SVG Export Plug-In . SVG Version: 6.00 Build 0)  -->
<svg version="1.1" id="Layer_1" xmlns="http://www.w3.org/2000/svg" xmlns:xlink="http://www.w3.org/1999/xlink" x="0px" y="0px"
	 viewBox="0 0 20 20" style="enable-background:new 0 0 20 20;" xml:space="preserve">
<style type="text/css">
	.st0{fill:none;}
	.st1{fill:#50AD4E;}
</style>
<title>play_circle_outline-24px copy</title>
<g id="Course-Detail">
	<g id="Course-Detail---Layout-1" transform="translate(-137.000000, -1405.000000)">
		<g id="Group-50" transform="translate(113.000000, 1214.000000)">
			<g id="Group-17" transform="translate(24.000000, 136.000000)">
				<g id="play_circle_outline-24px-copy" transform="translate(0.000000, 3.000000)">
					<polygon id="Path" class="st0" points="0,52 20,52 20,72 0,72 					"/>
					<path id="Shape" class="st1" d="M8.3,65.8l5-3.8l-5-3.8V65.8z M10,53.7c-4.6,0-8.3,3.7-8.3,8.3s3.7,8.3,8.3,8.3
						s8.3-3.7,8.3-8.3S14.6,53.7,10,53.7z M10,68.7c-3.7,0-6.7-3-6.7-6.7c0-3.7,3-6.7,6.7-6.7s6.7,3,6.7,6.7
						C16.7,65.7,13.7,68.7,10,68.7z"/>
				</g>
			</g>
		</g>
	</g>
</g>
</svg>
