<?xml version="1.0" encoding="UTF-8"?>
<svg width="42px" height="42px" viewBox="0 0 42 42" version="1.1" xmlns="http://www.w3.org/2000/svg" xmlns:xlink="http://www.w3.org/1999/xlink">
    <title>Group 28</title>
    <defs>
        <filter id="filter-1">
            <feColorMatrix in="SourceGraphic" type="matrix" values="0 0 0 0 1.000000 0 0 0 0 1.000000 0 0 0 0 1.000000 0 0 0 1.000000 0"></feColorMatrix>
        </filter>
    </defs>
    <g id="Course-Detail" stroke="none" stroke-width="1" fill="none" fill-rule="evenodd">
        <g id="Course-Detail---Layout-1" transform="translate(-360.000000, -508.000000)">
            <g id="Group-34-Copy" transform="translate(0.000000, 116.000000)">
                <g id="Group-28" transform="translate(360.000000, 392.000000)">
                    <rect id="Rectangle" stroke="#979797" fill="#D8D8D8" opacity="0" x="0.5" y="0.5" width="41" height="41"></rect>
                    <g filter="url(#filter-1)" id="icons8-facebook-like">
                        <g transform="translate(5.000000, 6.000000)">
                            <path d="M30.6,17.68 C30.6,17.01428 30.35928,16.40364 29.96148,15.93104 C30.75096,15.45436 31.28,14.58804 31.28,13.6 C31.28,12.09992 30.06008,10.88 28.56,10.88 L18.61636,10.88 C19.03048,9.5676 19.72,7.21888 19.72,6.12 C19.72,3.56048 17.84864,0 16.00584,0 L14.28,0 C13.90464,0 13.6,0.30464 13.6,0.68 L13.6,5.95952 L10.2,12.75952 L10.2,11.56 C10.2,11.18464 9.89536,10.88 9.52,10.88 L0.68,10.88 C0.48484,10.88 0.2992,10.96364 0.17,11.10984 C0.0408,11.25604 -0.01904,11.45052 0.00476,11.64432 L2.04476,27.96432 C2.0876,28.30432 2.37728,28.56 2.72,28.56 L9.52,28.56 C9.89536,28.56 10.2,28.25604 10.2,27.88 L10.2,27.2 L10.99628,27.2 C11.27712,27.99152 12.03328,28.56 12.92,28.56 L25.84,28.56 C27.34008,28.56 28.56,27.34008 28.56,25.84 C28.56,25.28036 28.39,24.76016 28.09964,24.327 C29.1584,23.95504 29.92,22.94456 29.92,21.76 C29.92,21.09428 29.67928,20.48364 29.28148,20.01104 C30.07096,19.53436 30.6,18.66736 30.6,17.68 Z M8.84,27.2 L3.32044,27.2 L1.45044,12.24 L8.84,12.24 L8.84,13.6 L8.84,26.52 L8.84,27.2 Z M28.56,14.96 L27.88,14.96 C27.50396,14.96 27.2,15.26396 27.2,15.64 C27.2,16.01604 27.50396,16.32 27.88,16.32 C28.63004,16.32 29.24,16.92996 29.24,17.68 C29.24,18.43004 28.63004,19.04 27.88,19.04 L27.2,19.04 C26.82396,19.04 26.52,19.34396 26.52,19.72 C26.52,20.09604 26.82396,20.4 27.2,20.4 C27.95004,20.4 28.56,21.00996 28.56,21.76 C28.56,22.51004 27.95004,23.12 27.2,23.12 L25.84,23.12 C25.46396,23.12 25.16,23.42396 25.16,23.8 C25.16,24.17604 25.46396,24.48 25.84,24.48 C26.59004,24.48 27.2,25.08996 27.2,25.84 C27.2,26.59004 26.59004,27.2 25.84,27.2 L12.92,27.2 C12.54532,27.2 12.24,26.89536 12.24,26.52 C12.24,26.14396 11.93536,25.84 11.56,25.84 L10.2,25.84 L10.2,14.28 L10.54,14.28 C10.79772,14.28 11.033,14.13448 11.1486,13.90396 L14.8886,6.42396 C14.93552,6.33012 14.96,6.2254 14.96,6.12 L14.96,1.36 L16.00584,1.36 C16.6294,1.36 18.36,3.72708 18.36,6.12 C18.36,7.18624 17.40392,10.25168 17.03604,11.3424 C16.96532,11.5498 17,11.77828 17.12784,11.95644 C17.25568,12.1346 17.46104,12.24 17.68,12.24 L28.56,12.24 C29.31004,12.24 29.92,12.84996 29.92,13.6 C29.92,14.35004 29.31004,14.96 28.56,14.96 Z" id="Shape" fill="#000000" fill-rule="nonzero"></path>
                            <path d="M6.46,23.8 C5.89666956,23.8 5.44,24.2566696 5.44,24.82 C5.44,25.3833304 5.89666956,25.84 6.46,25.84 C7.02333044,25.84 7.48,25.3833304 7.48,24.82 C7.48,24.2566696 7.02333044,23.8 6.46,23.8 Z" id="Path" fill="#000000" fill-rule="nonzero"></path>
                        </g>
                    </g>
                </g>
            </g>
        </g>
    </g>
</svg>