<?xml version="1.0" encoding="UTF-8"?>
<svg width="20px" height="20px" viewBox="0 0 20 20" version="1.1" xmlns="http://www.w3.org/2000/svg" xmlns:xlink="http://www.w3.org/1999/xlink">
    <title>Group 59</title>
    <defs>
        <filter id="filter-1">
            <feColorMatrix in="SourceGraphic" type="matrix" values="0 0 0 0 1.000000 0 0 0 0 0.000000 0 0 0 0 0.000000 0 0 0 1.000000 0"></feColorMatrix>
        </filter>
    </defs>
    <g id="Course-Detail" stroke="none" stroke-width="1" fill="none" fill-rule="evenodd">
        <g id="Group-59">
            <g filter="url(#filter-1)" id="Group">
                <g>
                    <polygon id="Path" points="0 0 20 0 20 20 0 20"></polygon>
                    <polygon id="Path" points="0 0 20 0 20 20 0 20"></polygon>
                </g>
            </g>
            <path d="M18.67,8.03206316 L12.677135,7.51550526 L10.335,2 L7.992865,7.52383684 L2,8.03206316 L6.55091,11.9729 L5.18397,17.83 L10.335,14.7223211 L15.48603,17.83 L14.127425,11.9729 L18.67,8.03206316 Z M10.335,13.1643158 L7.20104,15.0555842 L8.03454,11.4896684 L5.26732,9.09017368 L8.91805,8.77357368 L10.335,5.41594737 L11.760285,8.78190526 L15.411015,9.09850526 L12.643795,11.498 L13.477295,15.0639158 L10.335,13.1643158 Z" id="Shape" fill="#F7BB56" fill-rule="nonzero"></path>
        </g>
    </g>
</svg>